<svg version="1.1" id="Layer_1" xmlns="http://www.w3.org/2000/svg" xmlns:xlink="http://www.w3.org/1999/xlink" x="0px" y="0px"
	 width="100%" viewBox="0 0 1080 1080" enable-background="new 0 0 1080 1080" xml:space="preserve">
<path fill="#000000" opacity="1.000000" stroke="none" 
	d="
M968.000000,1081.000000 
	C645.333313,1081.000000 323.166656,1081.000000 1.000000,1081.000000 
	C1.000000,721.000000 1.000000,361.000000 1.000000,1.000000 
	C361.000000,1.000000 721.000000,1.000000 1081.000000,1.000000 
	C1081.000000,361.000000 1081.000000,721.000000 1081.000000,1081.000000 
	C1043.500000,1081.000000 1006.000000,1081.000000 968.000000,1081.000000 
M575.955750,551.989136 
	C575.955750,551.989136 576.010620,551.989502 576.141907,552.133728 
	C576.221069,552.228271 576.300232,552.322754 576.379395,552.417297 
	C576.249451,552.281494 576.119507,552.145752 575.955750,551.989136 
M191.830780,553.608887 
	C191.641006,553.345764 191.388763,553.174866 190.451157,552.975708 
	C190.034637,552.902588 189.618103,552.829529 188.716263,552.262146 
	C186.643890,551.207214 184.454422,550.330688 182.522095,549.062378 
	C177.612503,545.839905 173.359787,541.841187 174.413559,535.391907 
	C174.731094,533.448608 177.357330,531.293518 179.428207,530.401672 
	C181.269531,529.608704 184.438507,529.267334 184.941666,533.290588 
	C183.941376,533.554138 183.029663,533.564697 182.422195,533.999878 
	C180.928177,535.070190 178.531845,536.263733 178.443253,537.542419 
	C178.345490,538.953613 180.112137,541.037659 181.603729,541.905212 
	C184.991776,543.875854 188.317108,543.072327 191.126144,540.317078 
	C194.096344,537.403687 196.035233,533.963379 194.541077,529.808960 
	C192.125809,523.093445 183.323700,519.491089 175.877670,521.840393 
	C168.209595,524.259766 164.393341,531.258545 166.255936,539.489990 
	C166.739349,541.626404 167.229141,543.761353 167.716003,545.896973 
	C159.671265,540.466125 155.720551,532.808960 152.994827,524.237610 
	C152.290665,522.023315 150.564178,518.983887 148.764694,518.544189 
	C146.219315,517.922180 142.365982,518.514465 140.593719,520.193848 
	C139.208801,521.506226 139.073090,525.918640 140.238373,527.810303 
	C143.913803,533.777100 148.190674,539.440735 152.776688,544.753906 
	C155.481827,547.888062 159.212372,550.137085 162.481750,552.784119 
	C160.383835,552.567078 158.815445,551.434387 157.064285,550.841003 
	C139.778778,544.983643 123.444298,536.311462 104.491173,535.573120 
	C90.490318,535.027649 77.263588,536.193848 66.056938,545.143311 
	C61.358631,548.895325 54.996605,552.175720 55.282681,559.675781 
	C55.357288,561.631836 56.593891,564.324646 58.131836,565.183228 
	C59.252621,565.808960 62.149639,564.419678 63.537540,563.146667 
	C66.082611,560.812317 67.807602,557.574036 70.382500,555.283691 
	C84.879372,542.388733 102.249634,543.261780 119.405930,546.600952 
	C129.164185,548.500183 138.408615,553.065125 147.865494,556.482117 
	C168.752686,564.029236 189.949615,570.087646 212.487778,567.981934 
	C217.738983,567.491333 222.838013,565.371765 228.806259,563.957947 
	C235.469299,563.887512 240.430374,559.918213 245.484268,556.376221 
	C246.371597,555.754333 246.141006,553.537476 246.426712,552.057190 
	C245.380142,551.933167 244.094437,551.355591 243.326721,551.760437 
	C239.104950,553.986511 235.009903,556.452942 230.078552,558.973450 
	C227.079361,558.970337 224.080170,558.967224 221.710342,558.661438 
	C222.837311,558.389221 223.964264,558.117004 225.839401,557.884277 
	C228.023285,557.145630 230.386139,556.707520 232.323166,555.554199 
	C233.465973,554.873779 233.934174,553.060364 234.705734,551.756409 
	C233.309891,551.406006 231.806824,550.538696 230.538269,550.801819 
	C226.701324,551.597778 222.992783,553.552917 219.166428,553.751648 
	C210.118637,554.221619 201.031723,553.937866 191.985138,554.036377 
	C191.985138,554.036377 192.062988,554.012939 191.830780,553.608887 
M530.077576,554.498535 
	C530.090637,554.668030 530.103638,554.837463 529.818237,555.669983 
	C529.936462,561.771973 529.845154,567.788513 525.712769,572.927490 
	C524.826416,574.029663 524.567322,575.636230 523.407166,577.299622 
	C520.892029,579.479492 518.376892,581.659363 515.861755,583.839294 
	C516.554565,584.442688 517.247314,585.046021 517.940125,585.649414 
	C519.956177,582.759827 521.972290,579.870178 524.577576,576.668274 
	C526.616882,574.338928 529.302673,572.303284 530.528503,569.604431 
	C531.994385,566.377197 532.212158,562.583069 533.258057,559.551208 
	C533.587891,560.264709 533.917786,560.978271 534.209412,562.632812 
	C534.565552,574.324829 528.579590,584.119080 524.307678,594.426270 
	C524.755432,594.657593 525.203125,594.888916 525.650818,595.120239 
	C528.688293,589.677856 531.725830,584.235474 535.301392,577.829102 
	C535.868408,584.559998 536.298889,589.669434 536.729309,594.778931 
	C536.963501,594.797485 537.197632,594.815979 537.431824,594.834534 
	C538.250671,592.273193 539.069580,589.711914 539.888428,587.150574 
	C540.423584,587.085205 540.958679,587.019775 541.493835,586.954407 
	C542.745728,589.853210 543.997620,592.752075 545.203979,595.545410 
	C549.427185,592.834656 548.193420,589.605164 546.985291,586.121460 
	C545.946533,583.126343 545.514099,579.920959 544.813599,576.808594 
	C545.434998,576.645203 546.056335,576.481750 546.677734,576.318359 
	C548.676392,580.664673 550.437866,585.141296 552.734863,589.323669 
	C555.498657,594.355957 557.871704,599.897583 564.042847,602.010925 
	C564.042847,602.010925 563.989197,602.011536 563.707520,601.383911 
	C559.684265,594.126526 555.277161,587.051208 551.727783,579.569031 
	C546.413452,568.366211 546.157349,558.081604 556.681519,551.360291 
	C558.012512,554.641724 559.301636,557.819946 560.590759,560.998169 
	C560.965149,557.792114 560.675415,554.833130 559.870544,552.021667 
	C559.420776,550.450439 558.400940,548.480835 557.100159,547.904602 
	C556.173340,547.494080 554.346436,549.098206 552.928467,549.817688 
	C550.735535,550.930603 548.656006,552.460510 546.332947,553.075378 
	C543.307495,553.876160 540.859680,557.203613 542.776794,559.787964 
	C547.644470,566.349548 540.273926,571.232727 541.980591,577.191101 
	C541.286133,577.249695 540.591675,577.308350 539.897278,577.366943 
	C538.884338,572.132324 537.871399,566.897705 537.559326,561.574646 
	C538.061646,559.890015 539.162415,558.088257 538.863342,556.560486 
	C538.651733,555.478943 536.546509,554.767944 535.151306,554.559753 
	C535.060425,555.003906 534.969482,555.448059 534.364563,555.570923 
	C533.235168,554.733643 532.105835,553.896423 530.677551,552.614746 
	C529.927856,552.136475 529.178162,551.658142 528.428528,551.179871 
	C528.230347,551.455505 528.032166,551.731140 527.833984,552.006836 
	C528.564026,552.668335 529.294067,553.329895 530.077576,554.498535 
M279.619415,557.928467 
	C286.403137,558.957520 293.186859,559.986633 299.297760,561.486755 
	C292.543427,561.036682 285.789124,560.586670 278.227722,560.070801 
	C272.073486,557.422729 265.956360,554.681396 259.733612,552.205444 
	C258.494110,551.712341 256.850800,552.233887 255.393707,552.287537 
	C255.932434,553.659607 256.100891,555.825806 257.068939,556.277161 
	C264.301788,559.649780 271.692810,562.683167 279.729980,566.203064 
	C283.472778,566.823425 287.210083,567.932983 290.959381,567.975037 
	C303.687988,568.117737 316.180054,567.955444 328.877350,564.504089 
	C340.370270,561.380249 351.363373,557.161438 362.611481,553.526611 
	C368.240906,551.707520 374.084991,550.552429 379.502472,549.596924 
	C378.829651,551.067566 378.156860,552.538269 377.484039,554.008911 
	C378.941040,554.281555 380.389313,554.719360 381.856628,554.796875 
	C386.917816,555.064209 392.177521,554.430237 396.994995,555.621765 
	C401.470337,556.728699 405.323334,560.163513 409.747894,561.736023 
	C412.349335,562.660583 415.530884,561.952881 418.451538,561.979370 
	C417.439270,559.665649 417.054108,556.264954 415.293152,555.248962 
	C410.647644,552.568848 405.560242,549.925903 400.361145,549.117126 
	C393.758575,548.090088 386.872498,548.885132 380.594421,548.381409 
	C382.035156,547.611816 383.448303,546.234131 384.920990,546.167236 
	C398.782806,545.537964 413.040985,541.246704 425.953583,550.301880 
	C428.461334,552.060486 429.965515,550.700806 430.729126,548.185852 
	C432.062988,543.792847 430.501923,540.430847 425.758392,538.880249 
	C409.483582,533.560242 393.056030,534.414490 376.972900,539.302490 
	C365.609711,542.755981 354.648773,547.533081 343.190247,551.282349 
	C343.079285,551.140442 342.968323,550.998596 343.340576,550.392517 
	C345.428833,548.762390 347.573730,547.199280 349.594757,545.489746 
	C355.791931,540.247437 360.677734,533.976685 363.319733,526.263000 
	C364.523865,522.747375 363.263123,519.553711 359.490814,518.283142 
	C355.270752,516.861755 350.584656,518.863647 350.138702,522.291565 
	C348.747162,532.989319 342.593750,540.639832 334.440796,547.229126 
	C335.027313,544.117065 336.585480,541.195862 336.873260,538.154358 
	C338.070648,525.499146 328.856262,518.244385 315.972748,522.346802 
	C308.843201,524.617004 306.735229,528.737000 308.216309,535.592041 
	C309.044800,539.426575 314.517548,543.522583 318.886780,542.634583 
	C321.033325,542.198181 322.759155,539.691711 324.675385,538.122131 
	C323.440125,536.766418 322.277832,535.332764 320.942810,534.083679 
	C320.112427,533.306702 319.020538,532.809326 317.566895,531.880249 
	C321.228882,529.468445 324.726715,528.946594 326.741760,531.564087 
	C328.219543,533.483704 328.716309,537.317505 327.870514,539.653870 
	C325.110809,547.277222 318.645325,551.093689 311.147736,552.932312 
	C299.844391,555.704407 288.430054,554.941956 276.631256,553.041870 
	C276.631256,553.041870 276.205109,552.939514 275.783508,552.328552 
	C274.541779,551.594299 273.339752,550.357666 272.048096,550.255554 
	C270.501801,550.133301 268.878906,550.980225 267.289185,551.407410 
	C268.186310,552.760010 268.790405,554.779663 270.040497,555.328796 
	C272.798187,556.540283 275.881500,557.010498 279.619415,557.928467 
M836.080139,550.195435 
	C834.635376,550.537476 833.203735,550.955139 831.743652,551.208740 
	C824.353821,552.492310 816.991150,554.047119 809.548401,554.863831 
	C805.508728,555.307068 801.328430,554.468811 796.512207,554.080505 
	C795.615906,553.774780 794.719666,553.469055 793.156616,552.945679 
	C791.689636,552.193665 790.126892,551.583008 788.772827,550.664551 
	C783.672607,547.205078 778.062195,543.898499 777.828369,536.848206 
	C777.759338,534.767456 779.211548,531.553040 780.869812,530.769348 
	C782.994873,529.765015 786.032837,530.692200 788.677429,530.787109 
	C788.679321,531.327759 788.681213,531.868408 788.683105,532.408997 
	C788.030579,532.864990 787.405151,533.664734 786.720947,533.718628 
	C783.431885,533.977722 781.753540,535.521667 782.324463,538.891785 
	C782.899231,542.285339 785.534790,542.787659 788.347412,542.790161 
	C792.615112,542.793945 797.070740,539.562988 797.809814,536.015564 
	C799.247986,529.113464 797.803345,526.351013 792.298584,523.367126 
	C785.372681,519.612793 778.764709,520.676819 773.420898,525.487915 
	C768.924438,529.536133 767.431091,535.277954 770.512390,541.389404 
	C771.298584,542.948853 771.376099,544.865662 771.986877,547.521240 
	C763.632874,541.584595 759.705383,533.906067 756.965149,525.468628 
	C755.955688,522.360352 755.946960,518.748962 751.527344,518.091919 
	C744.410278,517.033752 740.932861,520.601440 743.636719,527.274780 
	C746.659607,534.735413 751.058228,541.510742 757.850159,546.326782 
	C760.621826,548.292114 763.386597,550.267273 766.758545,552.668030 
	C765.249146,552.668030 764.382690,552.895630 763.705139,552.634033 
	C752.774292,548.413452 741.882812,544.090820 730.951172,539.872253 
	C717.897827,534.835022 704.220215,534.612549 690.709167,536.235413 
	C677.246399,537.852478 666.698181,545.298462 658.821045,556.373657 
	C656.749329,559.286560 657.076660,561.787659 659.783386,564.266785 
	C662.747437,566.981506 665.135742,565.307495 667.215698,563.399658 
	C669.144592,561.630310 670.434937,559.185852 672.237366,557.254150 
	C683.218323,545.485657 708.707520,540.460999 723.894775,546.484375 
	C734.339783,550.626953 745.018311,554.221680 755.720337,557.663452 
	C765.411377,560.780151 775.132507,564.158264 785.104858,565.943665 
	C794.668701,567.655945 804.571350,567.971619 814.326965,567.992249 
	C826.848877,568.018799 838.215271,563.520325 848.630798,556.769104 
	C849.733337,556.054504 849.819763,553.772339 850.377625,552.217407 
	C848.906311,552.239319 847.318848,551.911560 845.987000,552.353699 
	C842.908813,553.375549 839.954529,554.770569 837.420837,555.490173 
	C839.781921,553.443237 839.349548,551.711365 836.080139,550.195435 
M881.403137,553.099792 
	C879.612488,552.241272 877.893677,550.978333 876.009949,550.643433 
	C874.287048,550.337219 872.385681,551.034546 870.562988,551.289612 
	C871.718018,552.832153 872.593689,555.317017 874.075684,555.756287 
	C880.994446,557.807007 888.063354,559.369995 895.115845,560.940186 
	C897.657959,561.506226 900.304199,561.604797 902.011841,561.989624 
	C899.020874,562.019409 896.029846,562.049194 892.421204,561.948975 
	C891.793884,561.942993 891.166504,561.937012 889.761353,561.469482 
	C889.163757,561.458069 888.566223,561.446716 887.294739,561.140808 
	C878.345520,560.795288 871.072998,555.944519 863.303101,552.369019 
	C862.119324,551.824341 860.342712,552.568115 858.840271,552.715881 
	C859.429626,554.078064 859.671814,556.250793 860.662781,556.675232 
	C869.219238,560.339661 877.658386,564.849670 886.633972,566.799561 
	C895.261658,568.673828 904.632141,568.957275 913.412659,567.849854 
	C925.125122,566.372620 936.718689,563.356323 948.117371,560.131653 
	C964.113892,555.606262 979.643127,549.142212 995.839417,545.714844 
	C1005.951721,543.574890 1017.320190,542.195129 1027.091553,549.115295 
	C1028.300293,549.971252 1029.625244,550.871216 1031.023071,551.183105 
	C1032.059937,551.414551 1033.852051,551.108398 1034.358398,550.380920 
	C1036.654907,547.081116 1034.195435,540.379944 1030.418701,539.013794 
	C1017.403015,534.305542 1003.716797,533.999390 990.744690,536.962646 
	C975.658813,540.408630 961.204895,546.621033 946.215210,551.282959 
	C946.215210,551.282959 945.940796,550.943054 946.406189,550.452942 
	C955.345520,545.360046 961.527893,537.650452 965.908936,528.626160 
	C967.078430,526.216980 966.901978,522.092957 965.532410,519.874023 
	C964.568726,518.312561 960.482544,518.021301 957.895020,518.266357 
	C953.522766,518.680359 953.717712,522.887512 952.989990,525.966370 
	C950.971497,534.506958 945.401855,540.488647 939.115662,546.139465 
	C939.128418,543.509766 939.761658,541.156860 940.250916,538.774475 
	C940.578796,537.177979 941.158020,535.445190 940.845154,533.934875 
	C938.481689,522.525513 927.884644,517.883423 917.577087,523.609436 
	C912.012207,526.700806 910.552490,530.041321 912.049622,536.258667 
	C912.903015,539.802307 917.933655,543.249512 922.728210,542.759338 
	C924.498596,542.578308 927.063843,540.677307 927.436768,539.122009 
	C927.776245,537.705933 925.758423,535.603271 924.537415,533.986267 
	C923.935120,533.188599 922.785828,532.803833 921.884033,532.232300 
	C921.938416,531.714905 921.992859,531.197571 922.047241,530.680176 
	C924.616028,530.680176 927.499512,529.932495 929.681519,530.851196 
	C933.163818,532.317322 932.834717,535.855530 932.021118,539.772705 
	C928.709656,547.889954 921.559570,551.031128 913.928894,552.980042 
	C903.382446,555.673767 892.648865,555.347778 881.403137,553.099792 
M96.424690,550.378662 
	C93.823883,551.806519 91.267349,553.323792 88.610786,554.639038 
	C85.465874,556.196167 82.772537,558.615234 85.072762,561.821777 
	C86.039833,563.169922 91.052856,563.388977 92.765755,562.131470 
	C101.671379,555.593323 111.206459,553.029541 122.085533,555.085815 
	C123.409378,555.335999 124.972748,554.318848 126.425117,553.889038 
	C125.579727,552.683350 124.734344,551.477661 123.125145,550.047913 
	C114.429237,547.139343 105.754959,547.389648 96.424690,550.378662 
M725.197571,549.774780 
	C717.756042,547.493347 710.328003,547.226868 702.161133,549.960999 
	C698.045105,551.917480 693.742493,553.576721 689.908997,555.983337 
	C688.466614,556.888855 688.112061,559.527100 687.261536,561.375427 
	C689.291870,562.132690 691.279968,563.271240 693.368591,563.503113 
	C694.603638,563.640198 696.139465,562.532288 697.297668,561.661743 
	C705.649597,555.384888 714.764893,552.839478 725.186829,555.105530 
	C726.639221,555.421387 728.520386,553.765442 730.203125,553.022278 
	C728.764221,552.063965 727.325256,551.105591 725.197571,549.774780 
M989.848572,553.986084 
	C998.676270,554.200012 1006.859985,556.227661 1013.776611,562.136475 
	C1016.295837,564.288574 1019.311890,564.418213 1021.215027,561.640564 
	C1023.237366,558.688965 1021.238037,555.863342 1018.749390,554.486023 
	C1010.056274,549.674744 1000.751282,546.666260 990.672058,548.086975 
	C986.622986,548.657715 982.008911,548.694946 979.144226,552.800659 
	C982.076233,557.705750 985.757385,554.068542 989.848572,553.986084 
M508.593597,590.246765 
	C506.807709,590.917786 504.807465,591.306335 503.351410,592.411804 
	C502.837097,592.802368 503.171967,595.603699 503.946320,596.166931 
	C506.731659,598.192627 515.127686,596.854675 518.802795,593.708130 
	C516.144470,593.464600 514.028381,593.532837 512.078735,592.996460 
	C510.857391,592.660461 509.886292,591.414856 508.593597,590.246765 
M617.890015,483.175262 
	C611.989563,484.280792 606.089050,485.386292 600.188599,486.491821 
	C600.272888,486.958069 600.357117,487.424347 600.441406,487.890594 
	C607.161560,486.968842 613.881653,486.047089 620.601807,485.125366 
	C620.537109,484.587311 620.472412,484.049255 620.407715,483.511200 
	C619.780640,483.396454 619.153564,483.281738 617.890015,483.175262 
M589.328064,560.268982 
	C587.571045,559.410645 585.813965,558.552246 583.511230,557.427307 
	C585.572815,560.715332 587.088501,563.132690 589.230713,566.549194 
	C589.538269,566.399109 590.938538,565.715759 592.338806,565.032410 
	C591.540161,563.563599 590.741577,562.094727 589.328064,560.268982 
M542.335815,549.440063 
	C542.898010,548.074219 543.460205,546.708374 544.105225,545.141296 
	C541.678833,544.625427 539.983765,544.265076 537.916016,543.825439 
	C538.237488,546.697937 537.333008,549.901245 542.335815,549.440063 
M572.463074,546.200928 
	C571.824219,545.880859 571.185364,545.560730 570.546509,545.240662 
	C570.187927,545.657898 569.829346,546.075134 569.470764,546.492371 
	C570.481384,547.522095 571.492004,548.551819 572.502625,549.581482 
	C572.932983,549.205872 573.363342,548.830200 573.793701,548.454590 
	C573.465088,547.817749 573.136414,547.180969 572.463074,546.200928 
M520.078003,600.995422 
	C520.650146,600.216736 521.222290,599.438110 521.794434,598.659424 
	C521.363464,598.467102 520.932434,598.274841 520.501465,598.082520 
	C520.236328,599.130981 519.971252,600.179382 520.078003,600.995422 
M545.420227,604.905701 
	C545.308411,605.589661 545.196533,606.273682 545.084656,606.957642 
	C545.280212,606.973389 545.475708,606.989136 545.671265,607.004883 
	C545.671265,606.300293 545.671265,605.595764 545.420227,604.905701 
M534.016479,548.327698 
	C534.057068,548.307495 534.097656,548.287292 534.138245,548.267151 
	C534.091614,548.257141 534.044983,548.247131 534.016479,548.327698 
M512.988037,587.960693 
	C512.988037,587.960693 513.028564,587.966003 512.988037,587.960693 
z"/>
<path fill="#383532" opacity="1.000000" stroke="none" 
	d="
M191.960617,553.958862 
	C201.031723,553.937866 210.118637,554.221619 219.166428,553.751648 
	C222.992783,553.552917 226.701324,551.597778 230.538269,550.801819 
	C231.806824,550.538696 233.309891,551.406006 234.705734,551.756409 
	C233.934174,553.060364 233.465973,554.873779 232.323166,555.554199 
	C230.386139,556.707520 228.023285,557.145630 225.680679,557.649414 
	C226.791641,556.383545 228.061340,555.352539 230.412857,553.443115 
	C224.537170,554.670471 220.156601,555.585510 215.564575,556.544739 
	C216.840134,557.434448 217.891586,558.167908 218.978958,559.157410 
	C219.039474,559.584167 219.064072,559.754822 218.826309,559.939026 
	C217.767532,560.414368 216.971115,560.876160 215.853119,561.404663 
	C214.288116,561.866638 213.044708,562.261902 211.801300,562.657166 
	C211.948090,563.162354 212.094894,563.667603 212.241699,564.172791 
	C217.173172,563.151611 222.104630,562.130371 226.957184,561.314453 
	C227.254532,562.347107 227.630798,563.174438 228.007065,564.001709 
	C222.838013,565.371765 217.738983,567.491333 212.487778,567.981934 
	C189.949615,570.087646 168.752686,564.029236 147.865494,556.482117 
	C138.408615,553.065125 129.164185,548.500183 119.405930,546.600952 
	C102.249634,543.261780 84.879372,542.388733 70.382500,555.283691 
	C67.807602,557.574036 66.082611,560.812317 63.537540,563.146667 
	C62.149639,564.419678 59.252621,565.808960 58.131836,565.183228 
	C56.593891,564.324646 55.357288,561.631836 55.282681,559.675781 
	C54.996605,552.175720 61.358631,548.895325 66.056938,545.143311 
	C77.263588,536.193848 90.490318,535.027649 104.491173,535.573120 
	C123.444298,536.311462 139.778778,544.983643 157.064285,550.841003 
	C158.815445,551.434387 160.383835,552.567078 162.481750,552.784119 
	C159.212372,550.137085 155.481827,547.888062 152.776688,544.753906 
	C148.190674,539.440735 143.913803,533.777100 140.238373,527.810303 
	C139.073090,525.918640 139.208801,521.506226 140.593719,520.193848 
	C142.365982,518.514465 146.219315,517.922180 148.764694,518.544189 
	C150.564178,518.983887 152.290665,522.023315 152.994827,524.237610 
	C155.720551,532.808960 159.671265,540.466125 167.716003,545.896973 
	C167.229141,543.761353 166.739349,541.626404 166.255936,539.489990 
	C164.393341,531.258545 168.209595,524.259766 175.877670,521.840393 
	C183.323700,519.491089 192.125809,523.093445 194.541077,529.808960 
	C196.035233,533.963379 194.096344,537.403687 191.126144,540.317078 
	C188.317108,543.072327 184.991776,543.875854 181.603729,541.905212 
	C180.112137,541.037659 178.345490,538.953613 178.443253,537.542419 
	C178.531845,536.263733 180.928177,535.070190 182.422195,533.999878 
	C183.029663,533.564697 183.941376,533.554138 184.941666,533.290588 
	C184.438507,529.267334 181.269531,529.608704 179.428207,530.401672 
	C177.357330,531.293518 174.731094,533.448608 174.413559,535.391907 
	C173.359787,541.841187 177.612503,545.839905 182.522095,549.062378 
	C184.454422,550.330688 186.643890,551.207214 188.744644,552.733337 
	C187.838760,554.723694 186.904495,556.242920 185.606339,557.750793 
	C180.681076,555.647888 176.119690,553.556335 171.518478,551.446533 
	C170.936722,552.616821 170.375229,553.746399 169.555435,555.395630 
	C175.529343,557.294312 181.285553,559.123840 187.253174,561.104126 
	C192.605316,562.152466 197.726578,563.212463 202.900589,563.831909 
	C204.179443,563.984985 205.629684,562.706543 207.162903,561.809570 
	C208.541824,560.484314 209.758987,559.435669 211.132782,558.252075 
	C205.658585,558.252075 200.539566,558.252075 195.337433,558.454102 
	C194.893661,558.877930 194.533020,559.099731 194.039001,559.099365 
	C193.257294,557.237732 192.608963,555.598328 191.960617,553.958862 
M179.997498,553.940674 
	C179.997498,553.940674 179.964386,554.032715 180.057343,554.091187 
	C180.057343,554.091187 180.262146,554.090820 180.262146,554.090820 
	C180.262146,554.090820 180.036865,553.961731 179.997498,553.940674 
M200.127594,556.473511 
	C202.011948,556.642456 203.896301,556.811401 205.780655,556.980347 
	C205.785431,556.735352 205.790207,556.490295 205.794983,556.245239 
	C203.985550,556.245239 202.176102,556.245239 200.127594,556.473511 
M233.537109,551.969360 
	C233.537109,551.969360 233.532730,552.016418 233.537109,551.969360 
M169.403366,548.133728 
	C169.350052,548.087097 169.296738,548.040466 169.403366,548.133728 
z"/>
<path fill="#383532" opacity="1.000000" stroke="none" 
	d="
M836.949951,556.014221 
	C839.954529,554.770569 842.908813,553.375549 845.987000,552.353699 
	C847.318848,551.911560 848.906311,552.239319 850.377625,552.217407 
	C849.819763,553.772339 849.733337,556.054504 848.630798,556.769104 
	C838.215271,563.520325 826.848877,568.018799 814.326965,567.992249 
	C804.571350,567.971619 794.668701,567.655945 785.104858,565.943665 
	C775.132507,564.158264 765.411377,560.780151 755.720337,557.663452 
	C745.018311,554.221680 734.339783,550.626953 723.894775,546.484375 
	C708.707520,540.460999 683.218323,545.485657 672.237366,557.254150 
	C670.434937,559.185852 669.144592,561.630310 667.215698,563.399658 
	C665.135742,565.307495 662.747437,566.981506 659.783386,564.266785 
	C657.076660,561.787659 656.749329,559.286560 658.821045,556.373657 
	C666.698181,545.298462 677.246399,537.852478 690.709167,536.235413 
	C704.220215,534.612549 717.897827,534.835022 730.951172,539.872253 
	C741.882812,544.090820 752.774292,548.413452 763.705139,552.634033 
	C764.382690,552.895630 765.249146,552.668030 766.758545,552.668030 
	C763.386597,550.267273 760.621826,548.292114 757.850159,546.326782 
	C751.058228,541.510742 746.659607,534.735413 743.636719,527.274780 
	C740.932861,520.601440 744.410278,517.033752 751.527344,518.091919 
	C755.946960,518.748962 755.955688,522.360352 756.965149,525.468628 
	C759.705383,533.906067 763.632874,541.584595 771.986877,547.521240 
	C771.376099,544.865662 771.298584,542.948853 770.512390,541.389404 
	C767.431091,535.277954 768.924438,529.536133 773.420898,525.487915 
	C778.764709,520.676819 785.372681,519.612793 792.298584,523.367126 
	C797.803345,526.351013 799.247986,529.113464 797.809814,536.015564 
	C797.070740,539.562988 792.615112,542.793945 788.347412,542.790161 
	C785.534790,542.787659 782.899231,542.285339 782.324463,538.891785 
	C781.753540,535.521667 783.431885,533.977722 786.720947,533.718628 
	C787.405151,533.664734 788.030579,532.864990 788.683105,532.408997 
	C788.681213,531.868408 788.679321,531.327759 788.677429,530.787109 
	C786.032837,530.692200 782.994873,529.765015 780.869812,530.769348 
	C779.211548,531.553040 777.759338,534.767456 777.828369,536.848206 
	C778.062195,543.898499 783.672607,547.205078 788.772827,550.664551 
	C790.126892,551.583008 791.689636,552.193665 793.224243,553.218018 
	C791.541138,554.299072 789.790405,555.107849 787.987122,555.885864 
	C787.934570,555.855164 787.685608,555.879211 787.685608,555.879211 
	C787.685608,555.879211 787.913452,556.077637 787.930786,556.356079 
	C787.959778,556.820129 787.971375,557.005737 787.598267,557.142456 
	C783.381897,555.332581 779.550171,553.571533 775.359985,551.645752 
	C775.003906,552.346802 774.386230,553.562622 773.521790,555.264282 
	C786.011963,560.882141 798.785706,561.807434 811.943970,561.891235 
	C812.170898,561.907837 812.624451,561.943970 812.915894,562.206177 
	C818.745789,565.498535 823.753723,562.416992 829.256226,560.967957 
	C832.081726,559.215942 834.566223,557.600769 837.022461,555.981934 
	C836.994202,555.978333 836.949951,556.014221 836.949951,556.014221 
z"/>
<path fill="#383532" opacity="1.000000" stroke="none" 
	d="
M277.049438,553.173035 
	C288.430054,554.941956 299.844391,555.704407 311.147736,552.932312 
	C318.645325,551.093689 325.110809,547.277222 327.870514,539.653870 
	C328.716309,537.317505 328.219543,533.483704 326.741760,531.564087 
	C324.726715,528.946594 321.228882,529.468445 317.566895,531.880249 
	C319.020538,532.809326 320.112427,533.306702 320.942810,534.083679 
	C322.277832,535.332764 323.440125,536.766418 324.675354,538.122131 
	C322.759155,539.691711 321.033325,542.198181 318.886780,542.634583 
	C314.517548,543.522583 309.044800,539.426575 308.216309,535.592041 
	C306.735229,528.737000 308.843201,524.617004 315.972748,522.346802 
	C328.856262,518.244385 338.070648,525.499146 336.873260,538.154358 
	C336.585480,541.195862 335.027313,544.117065 334.440796,547.229126 
	C342.593750,540.639832 348.747162,532.989319 350.138702,522.291565 
	C350.584656,518.863647 355.270752,516.861755 359.490814,518.283142 
	C363.263123,519.553711 364.523865,522.747375 363.319733,526.263000 
	C360.677734,533.976685 355.791931,540.247437 349.594757,545.489746 
	C347.573730,547.199280 345.428833,548.762390 342.809601,550.688049 
	C341.306030,551.530029 340.333435,552.076538 339.360840,552.622986 
	C339.489807,552.856445 339.618805,553.089905 339.747772,553.323425 
	C341.001282,552.788696 342.254791,552.253967 343.508270,551.719238 
	C354.648773,547.533081 365.609711,542.755981 376.972900,539.302490 
	C393.056030,534.414490 409.483582,533.560242 425.758392,538.880249 
	C430.501923,540.430847 432.062988,543.792847 430.729126,548.185852 
	C429.965515,550.700806 428.461334,552.060486 425.953583,550.301880 
	C413.040985,541.246704 398.782806,545.537964 384.920990,546.167236 
	C383.448303,546.234131 382.035156,547.611816 380.282562,548.688843 
	C379.970703,548.996277 379.831970,549.096985 379.831970,549.096985 
	C374.084991,550.552429 368.240906,551.707520 362.611481,553.526611 
	C351.363373,557.161438 340.370270,561.380249 328.877350,564.504089 
	C316.180054,567.955444 303.687988,568.117737 290.959381,567.975037 
	C287.210083,567.932983 283.472778,566.823425 279.436523,565.744141 
	C279.106964,563.569031 279.070892,561.852783 279.034790,560.136597 
	C285.789124,560.586670 292.543427,561.036682 299.886780,561.099976 
	C301.447327,560.048096 302.418854,559.382935 303.390381,558.717712 
	C303.296326,558.414856 303.202271,558.111938 303.108185,557.809021 
	C299.159454,557.809021 295.210724,557.809021 291.261993,557.809021 
	C291.269897,557.479858 291.277832,557.150696 291.285736,556.821533 
	C294.463196,556.821533 297.640625,556.821533 300.818085,556.821533 
	C296.312439,556.014160 291.806732,556.375183 287.391144,555.899536 
	C283.886658,555.522034 280.492554,554.120056 277.049438,553.173035 
M312.513580,555.018433 
	C311.916992,555.116089 311.320435,555.213684 310.723846,555.311340 
	C310.726166,555.472351 310.728485,555.633362 310.730804,555.794373 
	C311.485565,555.864563 312.240356,555.934753 312.423401,556.312988 
	C311.276520,557.497925 310.129639,558.682800 308.672485,560.002258 
	C308.594666,560.233887 308.516815,560.465576 308.438965,560.697205 
	C308.598785,560.736755 308.773285,560.839966 308.916290,560.806885 
	C316.739716,558.997314 324.561584,557.181274 332.373840,555.324463 
	C332.541931,555.284485 332.595642,554.763245 332.821228,554.138184 
	C331.880554,553.278931 330.852295,552.339600 330.656311,552.160583 
	C325.955139,554.297119 321.990326,556.098999 318.132996,557.489258 
	C317.493195,553.320312 314.619110,556.819763 313.005859,555.501282 
	C313.005859,555.501282 313.007324,555.007324 313.241272,554.973572 
	C313.385071,554.875977 313.528870,554.778381 313.672668,554.680847 
	C313.447754,554.785522 313.222870,554.890137 312.513580,555.018433 
M411.800293,543.597107 
	C411.589417,543.544189 411.378540,543.491333 411.167664,543.438477 
	C411.331482,543.556946 411.495331,543.675415 411.800293,543.597107 
z"/>
<path fill="#383532" opacity="1.000000" stroke="none" 
	d="
M946.476746,551.632812 
	C961.204895,546.621033 975.658813,540.408630 990.744690,536.962646 
	C1003.716797,533.999390 1017.403015,534.305542 1030.418701,539.013794 
	C1034.195435,540.379944 1036.654907,547.081116 1034.358398,550.380920 
	C1033.852051,551.108398 1032.059937,551.414551 1031.023071,551.183105 
	C1029.625244,550.871216 1028.300293,549.971252 1027.091553,549.115295 
	C1017.320190,542.195129 1005.951721,543.574890 995.839417,545.714844 
	C979.643127,549.142212 964.113892,555.606262 948.117371,560.131653 
	C936.718689,563.356323 925.125122,566.372620 913.412659,567.849854 
	C904.632141,568.957275 895.261658,568.673828 886.633972,566.799561 
	C877.658386,564.849670 869.219238,560.339661 860.662781,556.675232 
	C859.671814,556.250793 859.429626,554.078064 858.840271,552.715942 
	C860.342712,552.568115 862.119324,551.824341 863.303101,552.369019 
	C871.072998,555.944519 878.345520,560.795288 887.871338,561.408142 
	C889.144958,561.760681 889.842102,561.845825 890.539185,561.931030 
	C891.166504,561.937012 891.793884,561.942993 892.994141,562.272949 
	C894.461121,562.996704 895.401855,563.823669 896.242065,563.731628 
	C906.563293,562.601074 916.874329,561.370544 927.170349,560.030151 
	C927.881104,559.937622 928.451294,558.765198 929.384888,558.039124 
	C930.087219,557.953735 930.491516,557.924194 931.212097,558.009705 
	C934.311035,557.658447 937.093628,557.192200 939.870483,556.726868 
	C938.860657,554.143188 938.423645,552.230286 937.384521,550.736084 
	C936.934753,550.089355 935.243103,550.306335 933.941711,550.417847 
	C930.240601,552.838440 926.713440,554.972168 922.994934,556.933228 
	C922.554810,556.523743 922.305969,556.286865 922.105530,556.025024 
	C922.153870,556.000000 922.226624,555.821594 922.226624,555.821594 
	C922.226624,555.821594 921.970459,555.943298 921.686096,555.837097 
	C920.602478,555.141235 919.803162,554.551636 919.306702,553.792725 
	C923.613037,550.642212 927.817688,547.881897 931.491028,544.537964 
	C932.521484,543.599854 931.989197,540.945007 932.173828,539.077698 
	C932.834717,535.855530 933.163818,532.317322 929.681519,530.851196 
	C927.499512,529.932495 924.616028,530.680176 922.047241,530.680176 
	C921.992859,531.197571 921.938416,531.714905 921.884033,532.232300 
	C922.785828,532.803833 923.935120,533.188599 924.537415,533.986267 
	C925.758423,535.603271 927.776245,537.705933 927.436768,539.122009 
	C927.063843,540.677307 924.498596,542.578308 922.728210,542.759338 
	C917.933655,543.249512 912.903015,539.802307 912.049622,536.258667 
	C910.552490,530.041321 912.012207,526.700806 917.577087,523.609436 
	C927.884644,517.883423 938.481689,522.525513 940.845154,533.934875 
	C941.158020,535.445190 940.578796,537.177979 940.250916,538.774475 
	C939.761658,541.156860 939.128418,543.509766 939.115662,546.139465 
	C945.401855,540.488647 950.971497,534.506958 952.989990,525.966370 
	C953.717712,522.887512 953.522766,518.680359 957.895020,518.266357 
	C960.482544,518.021301 964.568726,518.312561 965.532410,519.874023 
	C966.901978,522.092957 967.078430,526.216980 965.908936,528.626160 
	C961.527893,537.650452 955.345520,545.360046 945.943604,550.752441 
	C945.092896,551.420471 944.704834,551.789062 944.316711,552.157715 
	C945.036743,551.982727 945.756714,551.807800 946.476746,551.632812 
M1015.086121,543.200073 
	C1014.867798,543.324463 1014.649475,543.448853 1014.431213,543.573242 
	C1014.656799,543.692810 1014.882385,543.812439 1015.108032,543.932007 
	C1015.186401,543.725220 1015.264771,543.518372 1015.086121,543.200073 
z"/>
<path fill="#151515" opacity="1.000000" stroke="none" 
	d="
M564.011597,601.989746 
	C557.871704,599.897583 555.498657,594.355957 552.734863,589.323669 
	C550.437866,585.141296 548.676392,580.664673 546.677734,576.318359 
	C546.056335,576.481750 545.434998,576.645203 544.813599,576.808594 
	C545.514099,579.920959 545.946533,583.126343 546.985291,586.121460 
	C548.193420,589.605164 549.427185,592.834656 545.203979,595.545410 
	C543.997620,592.752075 542.745728,589.853210 541.493835,586.954407 
	C540.958679,587.019775 540.423584,587.085205 539.888428,587.150574 
	C539.069580,589.711914 538.250671,592.273193 537.431824,594.834534 
	C537.197632,594.815979 536.963501,594.797485 536.729309,594.778931 
	C536.298889,589.669434 535.868408,584.559998 535.301392,577.829102 
	C531.725830,584.235474 528.688293,589.677856 525.650818,595.120239 
	C525.203125,594.888916 524.755432,594.657593 524.307678,594.426270 
	C528.579590,584.119080 534.565552,574.324829 534.445312,562.101013 
	C535.407043,561.600525 536.132751,561.631836 536.858521,561.663086 
	C537.871399,566.897705 538.884338,572.132324 539.897278,577.366943 
	C540.591675,577.308350 541.286133,577.249695 541.980591,577.191101 
	C540.273926,571.232727 547.644470,566.349548 542.776794,559.787964 
	C540.859680,557.203613 543.307495,553.876160 546.332947,553.075378 
	C548.656006,552.460510 550.735535,550.930603 552.928467,549.817688 
	C554.346436,549.098206 556.173340,547.494080 557.100159,547.904602 
	C558.400940,548.480835 559.420776,550.450439 559.870544,552.021667 
	C560.675415,554.833130 560.965149,557.792114 560.590759,560.998169 
	C559.301636,557.819946 558.012512,554.641724 556.681519,551.360291 
	C546.157349,558.081604 546.413452,568.366211 551.727783,579.569031 
	C555.277161,587.051208 559.684265,594.126526 563.853271,601.691589 
	C563.999023,601.999268 564.011597,601.989746 564.011597,601.989746 
M540.532410,583.487610 
	C540.532410,583.487610 540.488708,583.503662 540.532410,583.487610 
z"/>
<path fill="#383532" opacity="1.000000" stroke="none" 
	d="
M989.425110,554.037964 
	C985.757385,554.068542 982.076233,557.705750 979.144226,552.800659 
	C982.008911,548.694946 986.622986,548.657715 990.672058,548.086975 
	C1000.751282,546.666260 1010.056274,549.674744 1018.749390,554.486023 
	C1021.238037,555.863342 1023.237366,558.688965 1021.215027,561.640564 
	C1019.311890,564.418213 1016.295837,564.288574 1013.776611,562.136475 
	C1006.859985,556.227661 998.676270,554.200012 989.425110,554.037964 
z"/>
<path fill="#383532" opacity="1.000000" stroke="none" 
	d="
M380.039673,548.945435 
	C386.872498,548.885132 393.758575,548.090088 400.361145,549.117126 
	C405.560242,549.925903 410.647644,552.568848 415.293152,555.248962 
	C417.054108,556.264954 417.439270,559.665649 418.451538,561.979370 
	C415.530884,561.952881 412.349335,562.660583 409.747894,561.736023 
	C405.323334,560.163513 401.470337,556.728699 396.994995,555.621765 
	C392.177521,554.430237 386.917816,555.064209 381.856628,554.796875 
	C380.389313,554.719360 378.941040,554.281555 377.484039,554.008911 
	C378.156860,552.538269 378.829651,551.067566 379.667236,549.346924 
	C379.831970,549.096985 379.970703,548.996277 380.039673,548.945435 
z"/>
<path fill="#383532" opacity="1.000000" stroke="none" 
	d="
M725.886353,550.147217 
	C727.325256,551.105591 728.764221,552.063965 730.203125,553.022217 
	C728.520386,553.765442 726.639221,555.421387 725.186829,555.105530 
	C714.764893,552.839478 705.649597,555.384888 697.297668,561.661743 
	C696.139465,562.532288 694.603638,563.640198 693.368591,563.503113 
	C691.279968,563.271240 689.291870,562.132690 687.261536,561.375427 
	C688.112061,559.527100 688.466614,556.888855 689.908997,555.983337 
	C693.742493,553.576721 698.045105,551.917480 702.885803,550.063965 
	C711.035767,550.160400 718.461060,550.153809 725.886353,550.147217 
z"/>
<path fill="#383532" opacity="1.000000" stroke="none" 
	d="
M123.888962,550.271973 
	C124.734344,551.477661 125.579727,552.683350 126.425117,553.889038 
	C124.972748,554.318848 123.409378,555.335999 122.085533,555.085815 
	C111.206459,553.029541 101.671379,555.593323 92.765755,562.131470 
	C91.052856,563.388977 86.039833,563.169922 85.072762,561.821777 
	C82.772537,558.615234 85.465874,556.196167 88.610786,554.639038 
	C91.267349,553.323792 93.823883,551.806519 96.987183,550.457947 
	C103.434334,550.388550 109.318344,550.197754 115.203896,550.109253 
	C118.097450,550.065735 120.993858,550.211731 123.888962,550.271973 
z"/>
<path fill="#312E2C" opacity="1.000000" stroke="none" 
	d="
M919.003906,553.961975 
	C919.803162,554.551636 920.602478,555.141235 921.707397,555.864075 
	C922.013062,555.997253 922.057190,556.049988 922.057190,556.049988 
	C922.305969,556.286865 922.554810,556.523743 922.656128,557.134521 
	C918.315979,558.851868 914.123352,560.195312 909.578247,561.694519 
	C907.118164,561.872375 905.010498,561.894531 902.902893,561.916687 
	C900.304199,561.604797 897.657959,561.506226 895.115845,560.940186 
	C888.063354,559.369995 880.994446,557.807007 874.075684,555.756287 
	C872.593689,555.317017 871.718018,552.832153 870.562988,551.289612 
	C872.385681,551.034546 874.287048,550.337219 876.009949,550.643433 
	C877.893677,550.978333 879.612488,552.241272 882.006836,553.504028 
	C885.154053,554.568298 887.721741,555.869141 890.237000,555.774658 
	C899.835083,555.414185 909.416382,554.604126 919.003906,553.961975 
z"/>
<path fill="#312E2C" opacity="1.000000" stroke="none" 
	d="
M787.982910,557.191284 
	C787.971375,557.005737 787.959778,556.820129 787.962891,556.316223 
	C787.977661,555.997986 788.039673,555.916626 788.039673,555.916626 
	C789.790405,555.107849 791.541138,554.299072 793.557617,553.326782 
	C794.719666,553.469055 795.615906,553.774780 797.189331,554.299438 
	C806.679626,554.817810 815.529724,555.708313 824.290344,555.162720 
	C828.555054,554.897095 832.652649,551.949097 836.825928,550.215332 
	C839.349548,551.711365 839.781921,553.443237 837.185425,555.752197 
	C836.949951,556.014221 836.994202,555.978333 836.632935,556.015991 
	C833.320862,556.752014 830.328674,557.322021 827.451355,558.248718 
	C826.818970,558.452393 826.594727,559.923401 825.736206,560.814209 
	C821.068054,561.193115 816.846252,561.568542 812.624451,561.943970 
	C812.624451,561.943970 812.170898,561.907837 811.617432,561.685791 
	C803.370300,560.039551 795.676575,558.615417 787.982910,557.191284 
z"/>
<path fill="#312E2C" opacity="1.000000" stroke="none" 
	d="
M278.631287,560.103699 
	C279.070892,561.852783 279.106964,563.569031 279.088684,565.554077 
	C271.692810,562.683167 264.301788,559.649780 257.068939,556.277161 
	C256.100891,555.825806 255.932434,553.659607 255.393707,552.287537 
	C256.850800,552.233887 258.494110,551.712341 259.733612,552.205444 
	C265.956360,554.681396 272.073486,557.422729 278.631287,560.103699 
z"/>
<path fill="#312E2C" opacity="1.000000" stroke="none" 
	d="
M276.840332,553.107422 
	C280.492554,554.120056 283.886658,555.522034 287.391144,555.899536 
	C291.806732,556.375183 296.312439,556.014160 300.818085,556.821533 
	C297.640625,556.821533 294.463196,556.821533 291.285736,556.821533 
	C291.277832,557.150696 291.269897,557.479858 291.261993,557.809021 
	C295.210724,557.809021 299.159454,557.809021 303.108185,557.809021 
	C303.202271,558.111938 303.296326,558.414856 303.390381,558.717712 
	C302.418854,559.382935 301.447327,560.048096 300.223206,560.864502 
	C293.186859,559.986633 286.403137,558.957520 278.960510,557.693970 
	C276.699890,556.532776 275.098145,555.606018 272.720123,554.230164 
	C274.503265,553.569763 275.354187,553.254639 276.205109,552.939514 
	C276.205109,552.939514 276.631256,553.041870 276.840332,553.107422 
z"/>
<path fill="#312E2C" opacity="1.000000" stroke="none" 
	d="
M228.406662,563.979858 
	C227.630798,563.174438 227.254532,562.347107 227.225800,561.228149 
	C228.672699,560.236572 229.772049,559.536743 230.871368,558.836853 
	C235.009903,556.452942 239.104950,553.986511 243.326721,551.760437 
	C244.094437,551.355591 245.380142,551.933167 246.426712,552.057190 
	C246.141006,553.537476 246.371597,555.754333 245.484268,556.376221 
	C240.430374,559.918213 235.469299,563.887512 228.406662,563.979858 
z"/>
<path fill="#4C4A48" opacity="1.000000" stroke="none" 
	d="
M919.306702,553.792725 
	C909.416382,554.604126 899.835083,555.414185 890.237000,555.774658 
	C887.721741,555.869141 885.154053,554.568298 882.286072,553.677246 
	C892.648865,555.347778 903.382446,555.673767 913.928894,552.980042 
	C921.559570,551.031128 928.709656,547.889954 932.097473,539.425171 
	C931.989197,540.945007 932.521484,543.599854 931.491028,544.537964 
	C927.817688,547.881897 923.613037,550.642212 919.306702,553.792725 
z"/>
<path fill="#151515" opacity="1.000000" stroke="none" 
	d="
M508.698242,590.412109 
	C509.886292,591.414856 510.857391,592.660461 512.078735,592.996460 
	C514.028381,593.532837 516.144470,593.464600 518.802795,593.708130 
	C515.127686,596.854675 506.731659,598.192627 503.946320,596.166931 
	C503.171967,595.603699 502.837097,592.802368 503.351410,592.411804 
	C504.807465,591.306335 506.807709,590.917786 508.698242,590.412109 
z"/>
<path fill="#4C4A48" opacity="1.000000" stroke="none" 
	d="
M902.457397,561.953125 
	C905.010498,561.894531 907.118164,561.872375 910.002502,561.525635 
	C916.881775,560.165649 922.984253,559.130249 929.086792,558.094910 
	C928.451294,558.765198 927.881104,559.937622 927.170349,560.030151 
	C916.874329,561.370544 906.563293,562.601074 896.242065,563.731628 
	C895.401855,563.823669 894.461121,562.996704 893.302979,562.337952 
	C896.029846,562.049194 899.020874,562.019409 902.457397,561.953125 
z"/>
<path fill="#4C4A48" opacity="1.000000" stroke="none" 
	d="
M836.453003,550.205383 
	C832.652649,551.949097 828.555054,554.897095 824.290344,555.162720 
	C815.529724,555.708313 806.679626,554.817810 797.539001,554.363525 
	C801.328430,554.468811 805.508728,555.307068 809.548401,554.863831 
	C816.991150,554.047119 824.353821,552.492310 831.743652,551.208740 
	C833.203735,550.955139 834.635376,550.537476 836.453003,550.205383 
z"/>
<path fill="#151515" opacity="1.000000" stroke="none" 
	d="
M532.970459,559.034424 
	C532.212158,562.583069 531.994385,566.377197 530.528503,569.604431 
	C529.302673,572.303284 526.616882,574.338928 524.289673,576.832886 
	C524.001831,576.997559 524.019226,577.010498 524.019226,577.010498 
	C524.567322,575.636230 524.826416,574.029663 525.712769,572.927490 
	C529.845154,567.788513 529.936462,561.771973 530.237122,555.496216 
	C531.427490,556.559814 532.198975,557.797119 532.970459,559.034424 
z"/>
<path fill="#312E2C" opacity="1.000000" stroke="none" 
	d="
M533.114258,559.292847 
	C532.198975,557.797119 531.427490,556.559814 530.386292,555.164734 
	C530.103638,554.837463 530.090637,554.668030 530.210449,554.090515 
	C530.555359,553.475708 530.766418,553.267944 530.976440,553.059143 
	C532.105835,553.896423 533.235168,554.733643 534.779724,555.576233 
	C535.225464,555.018188 535.256042,554.454895 535.286560,553.891541 
	C536.546509,554.767944 538.651733,555.478943 538.863342,556.560486 
	C539.162415,558.088257 538.061646,559.890015 537.208923,561.618896 
	C536.132751,561.631836 535.407043,561.600525 534.464478,561.630493 
	C533.917786,560.978271 533.587891,560.264709 533.114258,559.292847 
z"/>
<path fill="#151515" opacity="1.000000" stroke="none" 
	d="
M618.208252,483.171143 
	C619.153564,483.281738 619.780640,483.396454 620.407715,483.511200 
	C620.472412,484.049255 620.537109,484.587311 620.601807,485.125366 
	C613.881653,486.047089 607.161560,486.968842 600.441406,487.890594 
	C600.357117,487.424347 600.272888,486.958069 600.188599,486.491821 
	C606.089050,485.386292 611.989563,484.280792 618.208252,483.171143 
z"/>
<path fill="#151515" opacity="1.000000" stroke="none" 
	d="
M589.635498,560.447449 
	C590.741577,562.094727 591.540161,563.563599 592.338806,565.032410 
	C590.938538,565.715759 589.538269,566.399109 589.230713,566.549194 
	C587.088501,563.132690 585.572815,560.715332 583.511230,557.427307 
	C585.813965,558.552246 587.571045,559.410645 589.635498,560.447449 
z"/>
<path fill="#4C4A48" opacity="1.000000" stroke="none" 
	d="
M123.507057,550.159912 
	C120.993858,550.211731 118.097450,550.065735 115.203896,550.109253 
	C109.318344,550.197754 103.434334,550.388550 97.324036,550.381714 
	C105.754959,547.389648 114.429237,547.139343 123.507057,550.159912 
z"/>
<path fill="#383532" opacity="1.000000" stroke="none" 
	d="
M275.994324,552.634033 
	C275.354187,553.254639 274.503265,553.569763 272.720123,554.230164 
	C275.098145,555.606018 276.699890,556.532776 278.566803,557.621338 
	C275.881500,557.010498 272.798187,556.540283 270.040497,555.328796 
	C268.790405,554.779663 268.186310,552.760010 267.289185,551.407410 
	C268.878906,550.980225 270.501801,550.133301 272.048096,550.255554 
	C273.339752,550.357666 274.541779,551.594299 275.994324,552.634033 
M270.521393,553.484009 
	C270.521393,553.484009 270.486389,553.490295 270.521393,553.484009 
z"/>
<path fill="#4C4A48" opacity="1.000000" stroke="none" 
	d="
M230.474976,558.905151 
	C229.772049,559.536743 228.672699,560.236572 227.304733,561.022766 
	C222.104630,562.130371 217.173172,563.151611 212.241699,564.172791 
	C212.094894,563.667603 211.948090,563.162354 211.801300,562.657166 
	C213.044708,562.261902 214.288116,561.866638 216.186432,561.353516 
	C217.590424,560.798889 218.339539,560.362183 219.088654,559.925476 
	C219.064072,559.754822 219.039474,559.584167 219.336197,559.160645 
	C220.131989,558.926575 220.606491,558.945374 221.080978,558.964111 
	C224.080170,558.967224 227.079361,558.970337 230.474976,558.905151 
z"/>
<path fill="#4C4A48" opacity="1.000000" stroke="none" 
	d="
M725.541992,549.960999 
	C718.461060,550.153809 711.035767,550.160400 703.265137,550.045532 
	C710.328003,547.226868 717.756042,547.493347 725.541992,549.960999 
z"/>
<path fill="#151515" opacity="1.000000" stroke="none" 
	d="
M542.077515,549.584717 
	C537.333008,549.901245 538.237488,546.697937 537.916016,543.825439 
	C539.983765,544.265076 541.678833,544.625427 544.105225,545.141296 
	C543.460205,546.708374 542.898010,548.074219 542.077515,549.584717 
z"/>
<path fill="#312E2C" opacity="1.000000" stroke="none" 
	d="
M221.395660,558.812744 
	C220.606491,558.945374 220.131989,558.926575 219.300262,558.904541 
	C217.891586,558.167908 216.840134,557.434448 215.564575,556.544739 
	C220.156601,555.585510 224.537170,554.670471 230.412857,553.443115 
	C228.061340,555.352539 226.791641,556.383545 225.306580,557.629639 
	C223.964264,558.117004 222.837311,558.389221 221.395660,558.812744 
z"/>
<path fill="#312E2C" opacity="1.000000" stroke="none" 
	d="
M191.972870,553.997620 
	C192.608963,555.598328 193.257294,557.237732 193.971329,559.044739 
	C194.037033,559.212280 194.059097,559.045105 193.673569,559.048950 
	C192.516602,559.040039 191.745178,559.027283 190.991516,558.999451 
	C191.009293,558.984436 191.005386,559.030823 190.891235,558.877808 
	C190.631256,558.517456 190.492203,558.305725 189.922791,558.035889 
	C188.313858,557.908936 187.142059,557.835571 185.970245,557.762146 
	C186.904495,556.242920 187.838760,554.723694 188.987305,552.980469 
	C189.618103,552.829529 190.034637,552.902588 190.924774,553.190613 
	C191.619629,553.608337 191.841171,553.810791 192.062988,554.012939 
	C192.062988,554.012939 191.985138,554.036377 191.972870,553.997620 
z"/>
<path fill="#151515" opacity="1.000000" stroke="none" 
	d="
M523.995117,576.989014 
	C521.972290,579.870178 519.956177,582.759827 517.940125,585.649414 
	C517.247314,585.046021 516.554565,584.442688 515.861755,583.839294 
	C518.376892,581.659363 520.892029,579.479492 523.713196,577.155029 
	C524.019226,577.010498 524.001831,576.997559 523.995117,576.989014 
z"/>
<path fill="#151515" opacity="1.000000" stroke="none" 
	d="
M572.635437,546.372559 
	C573.136414,547.180969 573.465088,547.817749 573.793701,548.454590 
	C573.363342,548.830200 572.932983,549.205872 572.502625,549.581482 
	C571.492004,548.551819 570.481384,547.522095 569.470764,546.492371 
	C569.829346,546.075134 570.187927,545.657898 570.546509,545.240662 
	C571.185364,545.560730 571.824219,545.880859 572.635437,546.372559 
z"/>
<path fill="#151515" opacity="1.000000" stroke="none" 
	d="
M519.892090,601.111633 
	C519.971252,600.179382 520.236328,599.130981 520.501465,598.082520 
	C520.932434,598.274841 521.363464,598.467102 521.794434,598.659424 
	C521.222290,599.438110 520.650146,600.216736 519.892090,601.111633 
z"/>
<path fill="#151515" opacity="1.000000" stroke="none" 
	d="
M530.827026,552.836914 
	C530.766418,553.267944 530.555359,553.475708 530.183716,553.836975 
	C529.294067,553.329895 528.564026,552.668335 527.833984,552.006836 
	C528.032166,551.731140 528.230347,551.455505 528.428528,551.179871 
	C529.178162,551.658142 529.927856,552.136475 530.827026,552.836914 
z"/>
<path fill="#151515" opacity="1.000000" stroke="none" 
	d="
M545.545776,604.898438 
	C545.671265,605.595764 545.671265,606.300293 545.671265,607.004883 
	C545.475708,606.989136 545.280212,606.973389 545.084656,606.957642 
	C545.196533,606.273682 545.308411,605.589661 545.545776,604.898438 
z"/>
<path fill="#312E2C" opacity="1.000000" stroke="none" 
	d="
M534.007446,548.282471 
	C534.044983,548.247131 534.091614,548.257141 534.138245,548.267090 
	C534.097656,548.287292 534.057068,548.307495 534.007446,548.282471 
z"/>
<path fill="#151515" opacity="1.000000" stroke="none" 
	d="
M513.008301,587.963379 
	C513.028564,587.966003 512.988037,587.960693 513.008301,587.963379 
z"/>
<path fill="#151515" opacity="1.000000" stroke="none" 
	d="
M575.989502,552.010010 
	C576.119507,552.145752 576.249451,552.281494 576.379395,552.417297 
	C576.300232,552.322754 576.221069,552.228271 576.071472,552.067261 
	C576.001038,552.000793 575.989502,552.010010 575.989502,552.010010 
z"/>
<path fill="#4C4A48" opacity="1.000000" stroke="none" 
	d="
M890.150269,561.700256 
	C889.842102,561.845825 889.144958,561.760681 888.208252,561.555420 
	C888.566223,561.446716 889.163757,561.458069 890.150269,561.700256 
z"/>
<path fill="#151515" opacity="1.000000" stroke="none" 
	d="
M535.218933,554.225647 
	C535.256042,554.454895 535.225464,555.018188 535.036743,555.736877 
	C534.969482,555.448059 535.060425,555.003906 535.218933,554.225647 
z"/>
<path fill="#151515" opacity="1.000000" stroke="none" 
	d="
M576.005859,551.995117 
	C576.010620,551.989502 575.955750,551.989136 575.972656,551.999573 
	C575.989502,552.010010 576.001038,552.000793 576.005859,551.995117 
z"/>
<path fill="#383532" opacity="1.000000" stroke="none" 
	d="
M191.946884,553.810913 
	C191.841171,553.810791 191.619629,553.608337 191.236206,553.250916 
	C191.388763,553.174866 191.641006,553.345764 191.946884,553.810913 
z"/>
<path fill="#151515" opacity="1.000000" stroke="none" 
	d="
M563.994141,602.005371 
	C563.989197,602.011536 564.042847,602.010925 564.027222,602.000366 
	C564.011597,601.989746 563.999023,601.999268 563.994141,602.005371 
z"/>
<path fill="#000000" opacity="1.000000" stroke="none" 
	d="
M185.606354,557.750793 
	C187.142059,557.835571 188.313858,557.908936 189.969086,558.226807 
	C190.595551,558.698547 190.779846,558.885071 191.005386,559.030823 
	C191.005386,559.030823 191.009293,558.984436 191.209778,559.182373 
	C192.293213,559.268555 193.176163,559.156799 194.059097,559.045105 
	C194.059097,559.045105 194.037033,559.212280 194.104706,559.266968 
	C194.533020,559.099731 194.893661,558.877930 195.446930,558.551758 
	C195.639542,558.447388 195.926727,558.502747 195.996170,558.772827 
	C196.325668,559.295166 196.585724,559.547363 197.057404,559.956604 
	C197.503326,560.372437 197.737625,560.631287 197.517349,560.922119 
	C193.722427,560.953918 190.382095,560.953613 187.041763,560.953308 
	C181.285553,559.123840 175.529343,557.294312 169.555435,555.395630 
	C170.375229,553.746399 170.936722,552.616821 171.518478,551.446533 
	C176.119690,553.556335 180.681076,555.647888 185.606354,557.750793 
z"/>
<path fill="#312E2C" opacity="1.000000" stroke="none" 
	d="
M197.971924,560.890137 
	C197.737625,560.631287 197.503326,560.372437 196.891602,559.750854 
	C196.318359,559.093018 196.122543,558.797913 195.926727,558.502747 
	C195.926727,558.502747 195.639542,558.447388 195.530045,558.349731 
	C200.539566,558.252075 205.658585,558.252075 211.132782,558.252075 
	C209.758987,559.435669 208.541824,560.484314 206.793716,561.810547 
	C203.499161,561.688843 200.735535,561.289490 197.971924,560.890137 
z"/>
<path fill="#4C4A48" opacity="1.000000" stroke="none" 
	d="
M197.517334,560.922119 
	C200.735535,561.289490 203.499161,561.688843 206.631958,562.087158 
	C205.629684,562.706543 204.179443,563.984985 202.900589,563.831909 
	C197.726578,563.212463 192.605316,562.152466 187.253174,561.104126 
	C190.382095,560.953613 193.722427,560.953918 197.517334,560.922119 
z"/>
<path fill="#312E2C" opacity="1.000000" stroke="none" 
	d="
M200.247131,556.359375 
	C202.176102,556.245239 203.985550,556.245239 205.794983,556.245239 
	C205.790207,556.490295 205.785431,556.735352 205.780655,556.980347 
	C203.896301,556.811401 202.011948,556.642456 200.247131,556.359375 
z"/>
<path fill="#312E2C" opacity="1.000000" stroke="none" 
	d="
M218.826309,559.939026 
	C218.339539,560.362183 217.590424,560.798889 216.508011,561.286743 
	C216.971115,560.876160 217.767532,560.414368 218.826309,559.939026 
z"/>
<path fill="#312E2C" opacity="1.000000" stroke="none" 
	d="
M233.534912,551.992920 
	C233.532730,552.016418 233.537109,551.969360 233.534912,551.992920 
z"/>
<path fill="#000000" opacity="1.000000" stroke="none" 
	d="
M169.323395,548.063782 
	C169.296738,548.040466 169.350052,548.087097 169.323395,548.063782 
z"/>
<path fill="#312E2C" opacity="1.000000" stroke="none" 
	d="
M180.036865,553.961731 
	C180.036865,553.961731 180.262146,554.090820 180.262146,554.090820 
	C180.262146,554.090820 180.057343,554.091187 180.028549,554.043701 
	C179.999756,553.996277 180.036865,553.961731 180.036865,553.961731 
z"/>
<path fill="#312E2C" opacity="1.000000" stroke="none" 
	d="
M179.982071,554.014526 
	C179.964386,554.032715 179.997498,553.940674 180.017181,553.951172 
	C180.036865,553.961731 179.999756,553.996277 179.982071,554.014526 
z"/>
<path fill="#000000" opacity="1.000000" stroke="none" 
	d="
M787.598267,557.142456 
	C795.676575,558.615417 803.370300,560.039551 811.390503,561.669189 
	C798.785706,561.807434 786.011963,560.882141 773.521790,555.264282 
	C774.386230,553.562622 775.003906,552.346802 775.359985,551.645752 
	C779.550171,553.571533 783.381897,555.332581 787.598267,557.142456 
z"/>
<path fill="#000000" opacity="1.000000" stroke="none" 
	d="
M826.182556,560.810791 
	C826.594727,559.923401 826.818970,558.452393 827.451355,558.248718 
	C830.328674,557.322021 833.320862,556.752014 836.661194,556.019653 
	C834.566223,557.600769 832.081726,559.215942 828.916992,560.913391 
	C827.551941,560.934082 826.867249,560.872437 826.182556,560.810791 
z"/>
<path fill="#4C4A48" opacity="1.000000" stroke="none" 
	d="
M825.736206,560.814209 
	C826.867249,560.872437 827.551941,560.934082 828.575928,561.050232 
	C823.753723,562.416992 818.745789,565.498535 812.915894,562.206177 
	C816.846252,561.568542 821.068054,561.193115 825.736206,560.814209 
z"/>
<path fill="#312E2C" opacity="1.000000" stroke="none" 
	d="
M787.945557,556.037842 
	C787.913452,556.077637 787.685608,555.879211 787.685608,555.879211 
	C787.685608,555.879211 787.934570,555.855164 787.987122,555.885864 
	C788.039673,555.916626 787.977661,555.997986 787.945557,556.037842 
z"/>
<path fill="#000000" opacity="1.000000" stroke="none" 
	d="
M318.025513,557.900879 
	C321.990326,556.098999 325.955139,554.297119 330.656311,552.160583 
	C330.852295,552.339600 331.880554,553.278931 332.821228,554.138184 
	C332.595642,554.763245 332.541931,555.284485 332.373840,555.324463 
	C324.561584,557.181274 316.739716,558.997314 308.916290,560.806885 
	C308.773285,560.839966 308.598785,560.736755 308.438965,560.697205 
	C308.516815,560.465576 308.594666,560.233887 309.211243,559.929993 
	C312.508514,559.205444 315.267029,558.553162 318.025513,557.900879 
z"/>
<path fill="#312E2C" opacity="1.000000" stroke="none" 
	d="
M318.079254,557.695068 
	C315.267029,558.553162 312.508514,559.205444 309.366394,559.862732 
	C310.129639,558.682800 311.276520,557.497925 312.711700,556.156494 
	C313.000000,556.000000 313.004883,555.995117 313.004883,555.995117 
	C314.619110,556.819763 317.493195,553.320312 318.079254,557.695068 
z"/>
<path fill="#000000" opacity="1.000000" stroke="none" 
	d="
M343.349243,551.500793 
	C342.254791,552.253967 341.001282,552.788696 339.747772,553.323425 
	C339.618805,553.089905 339.489807,552.856445 339.360840,552.622986 
	C340.333435,552.076538 341.306030,551.530029 342.567993,550.920166 
	C342.968323,550.998596 343.079285,551.140442 343.349243,551.500793 
z"/>
<path fill="#312E2C" opacity="1.000000" stroke="none" 
	d="
M312.997559,556.002441 
	C312.240356,555.934753 311.485565,555.864563 310.730804,555.794373 
	C310.728485,555.633362 310.726166,555.472351 310.723846,555.311340 
	C311.320435,555.213684 311.916992,555.116089 312.756958,555.009338 
	C313.000366,555.000244 313.007324,555.007324 313.007324,555.007324 
	C313.007324,555.007324 313.005859,555.501282 313.005371,555.748169 
	C313.004883,555.995117 313.000000,556.000000 312.997559,556.002441 
z"/>
<path fill="#000000" opacity="1.000000" stroke="none" 
	d="
M411.729736,543.695496 
	C411.495331,543.675415 411.331482,543.556946 411.167664,543.438477 
	C411.378540,543.491333 411.589417,543.544189 411.729736,543.695496 
z"/>
<path fill="#312E2C" opacity="1.000000" stroke="none" 
	d="
M312.999146,554.997559 
	C313.222870,554.890137 313.447754,554.785522 313.672668,554.680786 
	C313.528870,554.778381 313.385071,554.875977 313.124298,554.990479 
	C313.007324,555.007324 313.000366,555.000244 312.999146,554.997559 
z"/>
<path fill="#000000" opacity="1.000000" stroke="none" 
	d="
M929.384888,558.039062 
	C922.984253,559.130249 916.881775,560.165649 910.354980,561.369934 
	C914.123352,560.195312 918.315979,558.851868 922.847412,557.307129 
	C926.713440,554.972168 930.240601,552.838440 934.208740,550.631287 
	C934.992737,552.132751 935.335754,553.707642 935.724487,555.492249 
	C934.059326,556.320740 932.477600,557.107727 930.895813,557.894714 
	C930.491516,557.924194 930.087219,557.953735 929.384888,558.039062 
z"/>
<path fill="#4C4A48" opacity="1.000000" stroke="none" 
	d="
M931.212097,558.009705 
	C932.477600,557.107727 934.059326,556.320740 935.724487,555.492249 
	C935.335754,553.707642 934.992737,552.132751 934.382690,550.344360 
	C935.243103,550.306335 936.934753,550.089355 937.384521,550.736084 
	C938.423645,552.230286 938.860657,554.143188 939.870483,556.726868 
	C937.093628,557.192200 934.311035,557.658447 931.212097,558.009705 
z"/>
<path fill="#000000" opacity="1.000000" stroke="none" 
	d="
M946.345947,551.457886 
	C945.756714,551.807800 945.036743,551.982727 944.316711,552.157715 
	C944.704834,551.789062 945.092896,551.420471 945.710938,550.997437 
	C945.940796,550.943054 946.215210,551.282959 946.345947,551.457886 
z"/>
<path fill="#000000" opacity="1.000000" stroke="none" 
	d="
M1015.214600,543.255798 
	C1015.264771,543.518372 1015.186401,543.725220 1015.108032,543.932007 
	C1014.882385,543.812439 1014.656799,543.692810 1014.431213,543.573242 
	C1014.649475,543.448853 1014.867798,543.324463 1015.214600,543.255798 
z"/>
<path fill="#312E2C" opacity="1.000000" stroke="none" 
	d="
M921.991760,555.970276 
	C921.970459,555.943298 922.226624,555.821594 922.226624,555.821594 
	C922.226624,555.821594 922.153870,556.000000 922.105530,556.025024 
	C922.057190,556.049988 922.013062,555.997253 921.991760,555.970276 
z"/>
<path fill="#000000" opacity="1.000000" stroke="none" 
	d="
M540.510559,583.495605 
	C540.488708,583.503662 540.532410,583.487610 540.510559,583.495605 
z"/>
<path fill="#312E2C" opacity="1.000000" stroke="none" 
	d="
M270.503906,553.487183 
	C270.486389,553.490295 270.521393,553.484009 270.503906,553.487183 
z"/>
<path fill="#383532" opacity="1.000000" stroke="none" 
	d="
M193.673569,559.048950 
	C193.176163,559.156799 192.293213,559.268555 191.192017,559.197388 
	C191.745178,559.027283 192.516602,559.040039 193.673569,559.048950 
z"/>
<path fill="#383532" opacity="1.000000" stroke="none" 
	d="
M190.891235,558.877808 
	C190.779846,558.885071 190.595551,558.698547 190.406219,558.280396 
	C190.492203,558.305725 190.631256,558.517456 190.891235,558.877808 
z"/>
<path fill="#383532" opacity="1.000000" stroke="none" 
	d="
M195.996155,558.772827 
	C196.122543,558.797913 196.318359,559.093018 196.679962,559.593872 
	C196.585724,559.547363 196.325668,559.295166 195.996155,558.772827 
z"/>
</svg>